<svg width="20" height="20" viewBox="0 0 20 20" fill="none" xmlns="http://www.w3.org/2000/svg">
<g filter="url(#filter0_d_2167_133)">
<path fill-rule="evenodd" clip-rule="evenodd" d="M8.03031 16C8.03031 16 5.81107 14.3013 5.03031 13C4.24955 11.6987 2.77006 10.041 3.03031 9C3.29056 7.95899 4.24955 7.63091 5.03031 8.41167C5.81107 9.19243 6.33701 10.8841 6.85751 10.6238C7.37802 10.3636 6.98764 7.89117 6.46713 6.45978C5.94663 5.02839 5.40396 2 6.46713 2C7.53031 2 7.53031 3 8.03031 4.5C8.53031 6 8.13993 8 8.53031 8C8.92069 8 9.06966 7.65063 9.06966 7C9.06966 6.82319 9.10432 6.67375 9.17471 6.54986C9.36333 6.21788 9.80845 6.0694 10.5303 6.0694C11.5216 6.0694 11.0303 8 11.5303 8C12.0303 8 12.0303 8.04101 12.0303 7C12.0303 5.95899 12.4939 6.0694 13.4939 6.0694C14.4939 6.0694 14.0098 8 14.5303 8C15.0508 8 14.5303 7 15.0303 7C15.5303 7 16.0303 7.15773 16.0303 9.5C16.0303 11.8423 16.3111 11.959 15.5303 13C14.7496 14.041 14.0303 15 14.0303 15C14.0303 15 14.0303 16 13.4939 16C12.9576 16 12.6809 15 12.0303 15C11.3797 15 11.0303 16 11.0303 16H8.03031Z" fill="white"/>
<path d="M8.03031 16L7.7264 16.397L7.86091 16.5H8.03031H11.0303H11.3853L11.5018 16.1665L11.5018 16.1664L11.5018 16.1664L11.5019 16.1662L11.502 16.1658L11.5022 16.1654L11.5022 16.1652L11.5032 16.1627C11.5047 16.1586 11.5075 16.1512 11.5115 16.1411C11.5195 16.1207 11.5323 16.0898 11.5497 16.0519C11.585 15.9747 11.6362 15.8754 11.7008 15.7796C11.8527 15.5545 11.9722 15.5 12.0303 15.5C12.0541 15.5 12.0908 15.5062 12.1593 15.5572C12.2364 15.6146 12.3166 15.7005 12.4278 15.8282C12.4379 15.8398 12.4485 15.8521 12.4594 15.8647C12.5527 15.9726 12.6755 16.1145 12.8087 16.2265C12.9641 16.3571 13.1933 16.5 13.4939 16.5C13.8097 16.5 14.044 16.3431 14.1936 16.1572C14.3312 15.9861 14.4044 15.7853 14.4462 15.6295C14.4897 15.4673 14.51 15.3115 14.5199 15.2008C14.5206 15.193 14.5213 15.1853 14.5219 15.1779L14.5549 15.1339L14.8875 14.6904L15.9303 13.3C16.134 13.0284 16.2904 12.7888 16.3971 12.541C16.5079 12.2836 16.5557 12.0394 16.5722 11.7682C16.5873 11.5182 16.576 11.2314 16.5627 10.8958L16.5616 10.8688C16.5475 10.5133 16.5303 10.0751 16.5303 9.5C16.5303 8.32404 16.4103 7.58137 16.1532 7.12589C16.0129 6.87727 15.8263 6.70329 15.5983 6.60333C15.3844 6.50953 15.175 6.5 15.0303 6.5C14.8977 6.5 14.7535 6.53088 14.6235 6.61674C14.5844 6.45131 14.5273 6.2782 14.4387 6.12309C14.3568 5.97969 14.2397 5.83615 14.0715 5.72976C13.9 5.62133 13.7036 5.5694 13.4939 5.5694C13.4156 5.5694 13.3344 5.56856 13.2539 5.56773C13.1026 5.56617 12.9533 5.56463 12.8273 5.56867C12.6311 5.57498 12.4013 5.59488 12.1913 5.68425C11.9535 5.78546 11.77 5.9624 11.6598 6.21622C11.6327 6.27854 11.6108 6.34383 11.5932 6.41166C11.5613 6.31413 11.5215 6.21761 11.4709 6.12713C11.3905 5.98336 11.2747 5.83874 11.1071 5.73133C10.936 5.62176 10.7397 5.5694 10.5303 5.5694C9.84189 5.5694 9.16225 5.69237 8.80309 6.20318C8.77576 5.62123 8.70749 4.95041 8.50465 4.34189C8.40346 4.0383 8.3239 3.75735 8.24846 3.4909C8.23401 3.43989 8.21972 3.3894 8.20545 3.33939C8.11947 3.03802 8.03072 2.73945 7.91645 2.4836C7.80091 2.22491 7.64136 1.96722 7.38828 1.77871C7.12673 1.58388 6.81582 1.5 6.46713 1.5C6.20088 1.5 5.96646 1.6005 5.78758 1.77877C5.62126 1.94453 5.52469 2.15493 5.46591 2.35386C5.34963 2.74738 5.3393 3.24268 5.37456 3.72926C5.44608 4.71614 5.72296 5.87639 5.99724 6.63065C6.24328 7.30727 6.46269 8.24521 6.55613 9.03939C6.5937 9.3588 6.60894 9.63914 6.60148 9.86122C6.56122 9.79946 6.51745 9.72917 6.46972 9.65C6.42394 9.57404 6.37502 9.49037 6.32312 9.40161C6.07309 8.97398 5.75403 8.42829 5.38386 8.05812C4.89472 7.56897 4.2742 7.36326 3.6872 7.54505C3.10985 7.72386 2.70633 8.23437 2.54524 8.87873C2.44624 9.27474 2.5222 9.68256 2.65201 10.0484C2.78351 10.419 2.98936 10.799 3.21403 11.1643C3.43299 11.5204 3.68241 11.8822 3.91863 12.225L3.94013 12.2562C4.1864 12.6135 4.41593 12.9479 4.60156 13.2572C5.03398 13.9779 5.83483 14.771 6.48855 15.3596C6.82228 15.66 7.13054 15.9184 7.35539 16.1018C7.46793 16.1935 7.55989 16.2667 7.62407 16.3173C7.65617 16.3426 7.68134 16.3622 7.69869 16.3756L7.71874 16.3911L7.72416 16.3953L7.72568 16.3965L7.72614 16.3968L7.72629 16.397C7.72635 16.397 7.7264 16.397 8.03031 16ZM6.5413 10.2563C6.54127 10.2562 6.54183 10.255 6.54307 10.253C6.54195 10.2553 6.54133 10.2563 6.5413 10.2563Z" stroke="black"/>
</g>
<defs>
<filter id="filter0_d_2167_133" x="0" y="0" width="19.0793" height="20" filterUnits="userSpaceOnUse" color-interpolation-filters="sRGB">
<feFlood flood-opacity="0" result="BackgroundImageFix"/>
<feColorMatrix in="SourceAlpha" type="matrix" values="0 0 0 0 0 0 0 0 0 0 0 0 0 0 0 0 0 0 127 0" result="hardAlpha"/>
<feOffset dy="1"/>
<feGaussianBlur stdDeviation="1"/>
<feColorMatrix type="matrix" values="0 0 0 0 0 0 0 0 0 0 0 0 0 0 0 0 0 0 1 0"/>
<feBlend mode="normal" in2="BackgroundImageFix" result="effect1_dropShadow_2167_133"/>
<feBlend mode="normal" in="SourceGraphic" in2="effect1_dropShadow_2167_133" result="shape"/>
</filter>
</defs>
</svg>
