<?xml version="1.0" standalone="no"?>
<!DOCTYPE svg PUBLIC "-//W3C//DTD SVG 20010904//EN"
 "http://www.w3.org/TR/2001/REC-SVG-20010904/DTD/svg10.dtd">
<svg version="1.0" xmlns="http://www.w3.org/2000/svg"
 width="24.000000pt" height="24.000000pt" viewBox="0 0 24.000000 24.000000"
 preserveAspectRatio="xMidYMid meet">

<g transform="translate(0.000000,24.000000) scale(0.100000,-0.100000)"
fill="#000000" stroke="none">
<path d="M44 186 c-3 -7 -4 -42 -2 -77 3 -62 4 -64 31 -67 15 -2 27 1 27 7 0
6 -9 11 -20 11 -18 0 -20 7 -20 60 0 53 2 60 20 60 11 0 20 5 20 10 0 15 -50
12 -56 -4z"/>
<path d="M140 173 c0 -3 7 -15 17 -25 15 -17 14 -18 -30 -18 -26 0 -47 -4 -47
-10 0 -5 21 -10 47 -10 46 0 46 0 28 -20 -31 -34 -6 -36 27 -2 l32 32 -29 30
c-27 29 -45 38 -45 23z"/>
</g>
</svg>
